<?xml version="1.0" encoding="UTF-8" standalone="no"?>
<!DOCTYPE svg PUBLIC "-//W3C//DTD SVG 1.1//EN" "http://www.w3.org/Graphics/SVG/1.1/DTD/svg11.dtd">
<svg version="1.1" xmlns="http://www.w3.org/2000/svg" xmlns:xlink="http://www.w3.org/1999/xlink" preserveAspectRatio="xMidYMid meet" viewBox="0 0 100 100" width="100" height="100"><defs><path d="M12.5 12.5L90.63 12.5L90.63 90.63L12.5 90.63L12.5 12.5Z" id="fqvbVYkbF"></path><path d="M27.24 23.56C27.24 25.75 25.34 27.53 23 27.53C20.65 27.53 18.75 25.75 18.75 23.56C18.75 21.38 20.65 19.6 23 19.6C25.34 19.6 27.24 21.38 27.24 23.56Z" id="aEUmBte0g"></path><path d="M83.49 22.71C83.49 24.9 81.59 26.67 79.25 26.67C76.9 26.67 75 24.9 75 22.71C75 20.53 76.9 18.75 79.25 18.75C81.59 18.75 83.49 20.53 83.49 22.71Z" id="b1k6htOp7b"></path><path d="M28.13 80.41C28.13 82.6 26.22 84.38 23.88 84.38C21.53 84.38 19.63 82.6 19.63 80.41C19.63 78.23 21.53 76.45 23.88 76.45C26.22 76.45 28.13 78.23 28.13 80.41Z" id="benLpbnkX"></path><path d="M83.49 80.41C83.49 82.6 81.59 84.38 79.25 84.38C76.9 84.38 75 82.6 75 80.41C75 78.23 76.9 76.45 79.25 76.45C81.59 76.45 83.49 78.23 83.49 80.41Z" id="a21h9WBuqN"></path><path d="M37 33.04L67.12 33.04L67.12 66.96L37 66.96L37 33.04Z" id="d2t91o9UKk"></path></defs><g><g><g><use xlink:href="#fqvbVYkbF" opacity="1" fill="#fbfbfb" fill-opacity="0"></use><g><use xlink:href="#fqvbVYkbF" opacity="1" fill-opacity="0" stroke="#020202" stroke-width="3" stroke-opacity="1"></use></g></g><g><use xlink:href="#aEUmBte0g" opacity="1" fill="#fafafa" fill-opacity="0"></use><g><use xlink:href="#aEUmBte0g" opacity="1" fill-opacity="0" stroke="#0b0b0b" stroke-width="3" stroke-opacity="1"></use></g></g><g><use xlink:href="#b1k6htOp7b" opacity="1" fill="#fafafa" fill-opacity="0"></use><g><use xlink:href="#b1k6htOp7b" opacity="1" fill-opacity="0" stroke="#0b0b0b" stroke-width="3" stroke-opacity="1"></use></g></g><g><use xlink:href="#benLpbnkX" opacity="1" fill="#fafafa" fill-opacity="0"></use><g><use xlink:href="#benLpbnkX" opacity="1" fill-opacity="0" stroke="#0b0b0b" stroke-width="3" stroke-opacity="1"></use></g></g><g><use xlink:href="#a21h9WBuqN" opacity="1" fill="#fafafa" fill-opacity="0"></use><g><use xlink:href="#a21h9WBuqN" opacity="1" fill-opacity="0" stroke="#0b0b0b" stroke-width="3" stroke-opacity="1"></use></g></g><g><use xlink:href="#d2t91o9UKk" opacity="1" fill="#fafafa" fill-opacity="0"></use><g><use xlink:href="#d2t91o9UKk" opacity="1" fill-opacity="0" stroke="#020202" stroke-width="7" stroke-opacity="1"></use></g></g></g></g></svg>