<?xml version="1.0" encoding="UTF-8" standalone="no"?>
<!DOCTYPE svg PUBLIC "-//W3C//DTD SVG 1.1//EN" "http://www.w3.org/Graphics/SVG/1.1/DTD/svg11.dtd">
<svg version="1.1" xmlns="http://www.w3.org/2000/svg" xmlns:xlink="http://www.w3.org/1999/xlink" preserveAspectRatio="xMidYMid meet" viewBox="0 0 100 100" width="100" height="100"><defs><path d="M3.13 3.13L50 3.13L50 97.38L3.13 97.38L3.13 3.13Z" id="c10y8YRQs"></path><path d="M96.87 25L96.88 71.88L3.13 71.88L3.13 25L96.87 25Z" id="c3w7uKEwhe"></path><path d="M16.21 35.54C16.21 37.91 14.29 39.83 11.92 39.83C9.55 39.83 7.63 37.91 7.63 35.54C7.63 33.17 9.55 31.25 11.92 31.25C14.29 31.25 16.21 33.17 16.21 35.54Z" id="a3j1CGIq41"></path><path d="M42.96 35.54C42.96 37.91 41.03 39.83 38.67 39.83C36.3 39.83 34.38 37.91 34.38 35.54C34.38 33.17 36.3 31.25 38.67 31.25C41.03 31.25 42.96 33.17 42.96 35.54Z" id="f4veQMHv76"></path><path d="M15.92 60.54C15.92 62.91 13.99 64.83 11.63 64.83C9.26 64.83 7.34 62.91 7.34 60.54C7.34 58.17 9.26 56.25 11.63 56.25C13.99 56.25 15.92 58.17 15.92 60.54Z" id="dhDPDQLlH"></path><path d="M42.66 60.54C42.66 62.91 40.74 64.83 38.37 64.83C36.01 64.83 34.08 62.91 34.08 60.54C34.08 58.17 36.01 56.25 38.37 56.25C40.74 56.25 42.66 58.17 42.66 60.54Z" id="b49B6SCQ9q"></path></defs><g><g><g><use xlink:href="#c10y8YRQs" opacity="1" fill="#ffffff" fill-opacity="0"></use><g><use xlink:href="#c10y8YRQs" opacity="1" fill-opacity="0" stroke="#000000" stroke-width="2" stroke-opacity="1"></use></g></g><g><use xlink:href="#c3w7uKEwhe" opacity="1" fill="#ffffff" fill-opacity="0"></use><g><use xlink:href="#c3w7uKEwhe" opacity="1" fill-opacity="0" stroke="#000000" stroke-width="2" stroke-opacity="1"></use></g></g><g><use xlink:href="#a3j1CGIq41" opacity="1" fill="#ffffff" fill-opacity="0"></use><g><use xlink:href="#a3j1CGIq41" opacity="1" fill-opacity="0" stroke="#000000" stroke-width="2" stroke-opacity="1"></use></g></g><g><use xlink:href="#f4veQMHv76" opacity="1" fill="#ffffff" fill-opacity="0"></use><g><use xlink:href="#f4veQMHv76" opacity="1" fill-opacity="0" stroke="#000000" stroke-width="2" stroke-opacity="1"></use></g></g><g><use xlink:href="#dhDPDQLlH" opacity="1" fill="#ffffff" fill-opacity="0"></use><g><use xlink:href="#dhDPDQLlH" opacity="1" fill-opacity="0" stroke="#000000" stroke-width="2" stroke-opacity="1"></use></g></g><g><use xlink:href="#b49B6SCQ9q" opacity="1" fill="#ffffff" fill-opacity="0"></use><g><use xlink:href="#b49B6SCQ9q" opacity="1" fill-opacity="0" stroke="#000000" stroke-width="2" stroke-opacity="1"></use></g></g></g></g></svg>