<?xml version="1.0" encoding="UTF-8" standalone="no"?>
<!DOCTYPE svg PUBLIC "-//W3C//DTD SVG 1.1//EN" "http://www.w3.org/Graphics/SVG/1.1/DTD/svg11.dtd">
<svg version="1.1" xmlns="http://www.w3.org/2000/svg" xmlns:xlink="http://www.w3.org/1999/xlink" preserveAspectRatio="xMidYMid meet" viewBox="0 0 100 100" width="100" height="100"><defs><path d="M51.56 6.25L15.63 27.34L15.63 69.53L51.56 90.62L87.5 69.53L87.5 27.34L51.56 6.25Z" id="e31w0S3C1H"></path><path d="M80.98 48.3C80.98 64.61 67.74 77.85 51.43 77.85C35.12 77.85 21.88 64.61 21.88 48.3C21.88 31.99 35.12 18.75 51.43 18.75C67.74 18.75 80.98 31.99 80.98 48.3Z" id="c2AhciDbP"></path><path d="M77.01 48.15C77.01 62.97 65.36 75 51.01 75C36.65 75 25 62.97 25 48.15C25 33.33 36.65 21.3 51.01 21.3C65.36 21.3 77.01 33.33 77.01 48.15Z" id="b7bmH2XeO"></path></defs><g><g><g><use xlink:href="#e31w0S3C1H" opacity="1" fill="#000000" fill-opacity="1"></use></g><g><use xlink:href="#c2AhciDbP" opacity="1" fill="#ffffff" fill-opacity="1"></use><g><use xlink:href="#c2AhciDbP" opacity="1" fill-opacity="0" stroke="#ffffff" stroke-width="2" stroke-opacity="0"></use></g></g><g><use xlink:href="#b7bmH2XeO" opacity="1" fill="#000000" fill-opacity="1"></use></g></g></g></svg>