<?xml version="1.0" encoding="UTF-8" standalone="no"?>
<!DOCTYPE svg PUBLIC "-//W3C//DTD SVG 1.1//EN" "http://www.w3.org/Graphics/SVG/1.1/DTD/svg11.dtd">
<svg version="1.1" xmlns="http://www.w3.org/2000/svg" xmlns:xlink="http://www.w3.org/1999/xlink" preserveAspectRatio="xMidYMid meet" viewBox="0 0 100 100" width="100" height="100"><defs><path d="M40.63 31.25L56.25 31.25L56.25 43.75L40.63 43.75L40.63 31.25Z" id="b1HR5zkWMv"></path><path d="M23.44 15.63L39.06 15.63L39.06 31.25L23.44 31.25L23.44 15.63Z" id="bJXqVXRsw"></path><path d="M40.63 15.63L56.25 15.63L56.25 31.25L40.63 31.25L40.63 15.63Z" id="a2e911Gukk"></path><path d="M57.81 15.63L73.44 15.63L73.44 31.25L57.81 31.25L57.81 15.63Z" id="bodImPBqR"></path><path d="M56.25 50.62L40.63 53.13" id="c3sOpXkxFs"></path><path d="M56.25 55L40.63 57.5" id="b2kYplbfMm"></path><path d="M56.25 59.38L40.63 61.88" id="fms7bYqmu"></path><path d="M56.25 46.14L40.63 48.64" id="eeFR2gU3e"></path><path d="M56.25 63.74L40.63 66.24" id="c9IAfX3gW4"></path><path d="M56.25 68.11L40.63 70.62" id="a8nWgvCoI"></path><path d="M56.25 72.49L40.63 75" id="fqSBvMhwb"></path><path d="M56.25 76.84L40.63 79.35" id="dj7bcu3"></path><path d="M56.25 81.22L40.63 83.73" id="a1kN6y9HFg"></path><path d="M56.25 85.6L40.63 88.11" id="e37bPUSLQN"></path></defs><g><g><g><use xlink:href="#b1HR5zkWMv" opacity="1" fill="#000000" fill-opacity="1"></use></g><g><use xlink:href="#bJXqVXRsw" opacity="1" fill="#000000" fill-opacity="1"></use></g><g><use xlink:href="#a2e911Gukk" opacity="1" fill="#000000" fill-opacity="1"></use></g><g><use xlink:href="#bodImPBqR" opacity="1" fill="#000000" fill-opacity="1"></use></g><g><g><use xlink:href="#c3sOpXkxFs" opacity="1" fill-opacity="0" stroke="#000000" stroke-width="3" stroke-opacity="1"></use></g></g><g><g><use xlink:href="#b2kYplbfMm" opacity="1" fill-opacity="0" stroke="#000000" stroke-width="3" stroke-opacity="1"></use></g></g><g><g><use xlink:href="#fms7bYqmu" opacity="1" fill-opacity="0" stroke="#000000" stroke-width="3" stroke-opacity="1"></use></g></g><g><g><use xlink:href="#eeFR2gU3e" opacity="1" fill-opacity="0" stroke="#000000" stroke-width="3" stroke-opacity="1"></use></g></g><g><g><use xlink:href="#c9IAfX3gW4" opacity="1" fill-opacity="0" stroke="#000000" stroke-width="3" stroke-opacity="1"></use></g></g><g><g><use xlink:href="#a8nWgvCoI" opacity="1" fill-opacity="0" stroke="#000000" stroke-width="3" stroke-opacity="1"></use></g></g><g><g><use xlink:href="#fqSBvMhwb" opacity="1" fill-opacity="0" stroke="#000000" stroke-width="3" stroke-opacity="1"></use></g></g><g><g><use xlink:href="#dj7bcu3" opacity="1" fill-opacity="0" stroke="#000000" stroke-width="3" stroke-opacity="1"></use></g></g><g><g><use xlink:href="#a1kN6y9HFg" opacity="1" fill-opacity="0" stroke="#000000" stroke-width="3" stroke-opacity="1"></use></g></g><g><g><use xlink:href="#e37bPUSLQN" opacity="1" fill-opacity="0" stroke="#000000" stroke-width="3" stroke-opacity="1"></use></g></g></g></g></svg>