<?xml version="1.0" encoding="UTF-8" standalone="no"?>
<!DOCTYPE svg PUBLIC "-//W3C//DTD SVG 1.1//EN" "http://www.w3.org/Graphics/SVG/1.1/DTD/svg11.dtd">
<svg version="1.1" xmlns="http://www.w3.org/2000/svg" xmlns:xlink="http://www.w3.org/1999/xlink" preserveAspectRatio="xMidYMid meet" viewBox="0 0 100 100" width="100" height="100"><defs><path d="" id="a16uY6S93u"></path><path d="M40.62 90.62L56.25 90.62L56.25 93.75L40.62 93.75L40.62 90.62Z" id="a174t4cT2R"></path><path d="M56.25 9.38L56.25 25L40.63 25L40.63 9.38L56.25 9.38Z" id="adsnTTaOU"></path><path d="M56.25 26.56L56.25 42.19L40.63 42.19L40.63 26.56L56.25 26.56Z" id="a4Yusr4xD"></path><path d="M56.25 43.75L56.25 59.38L40.63 59.38L40.63 43.75L56.25 43.75Z" id="eckM4ecmv"></path><path d="M56.25 60.94L56.25 64.06L40.62 64.06L40.62 60.94L56.25 60.94Z" id="a9AT5uFcW"></path><path d="M46.88 64.06L50 64.06L50 90.63L46.88 90.63L46.88 64.06Z" id="c3lcTYJ82P"></path></defs><g><g><g><g><use xlink:href="#a16uY6S93u" opacity="1" fill-opacity="0" stroke="#000000" stroke-width="1" stroke-opacity="1"></use></g></g><g><use xlink:href="#a174t4cT2R" opacity="1" fill="#000000" fill-opacity="1"></use></g><g><use xlink:href="#adsnTTaOU" opacity="1" fill="#000000" fill-opacity="1"></use></g><g><use xlink:href="#a4Yusr4xD" opacity="1" fill="#000000" fill-opacity="1"></use></g><g><use xlink:href="#eckM4ecmv" opacity="1" fill="#000000" fill-opacity="1"></use></g><g><use xlink:href="#a9AT5uFcW" opacity="1" fill="#000000" fill-opacity="1"></use></g><g><use xlink:href="#c3lcTYJ82P" opacity="1" fill="#000000" fill-opacity="1"></use></g></g></g></svg>