<?xml version="1.0" encoding="UTF-8" standalone="no"?>
<!DOCTYPE svg PUBLIC "-//W3C//DTD SVG 1.1//EN" "http://www.w3.org/Graphics/SVG/1.1/DTD/svg11.dtd">
<svg version="1.1" xmlns="http://www.w3.org/2000/svg" xmlns:xlink="http://www.w3.org/1999/xlink" preserveAspectRatio="xMidYMid meet" viewBox="0 0 100 100" width="100" height="100"><defs><path d="M9.38 40.63L90.63 40.63L90.63 50L9.38 50L9.38 40.63Z" id="b9vqHpCSs"></path><path d="" id="dtxBH0erq"></path><path d="" id="aisrIGmi3"></path><path d="M22.88 28.08L32.25 37.45" id="b35lMj9xLR"></path><path d="M39.63 28.8L30.25 37.45" id="c3upuxNxdS"></path><path d="M31.25 19.33L31.25 38.28" id="eaI7GXdjB"></path><path d="M13.13 55.61L16.89 61.22L9.37 61.22L1.86 61.22L5.62 55.61L9.37 50L13.13 55.61Z" id="kAXsizk7h"></path><path d="M94.38 55.61L98.14 61.22L90.62 61.22L83.11 61.22L86.87 55.61L90.62 50L94.38 55.61Z" id="b3CSScUxHi"></path><path d="M54.36 55.61L58.12 61.22L50.61 61.22L43.1 61.22L46.85 55.61L50.61 50L54.36 55.61Z" id="j1HQTtaHoG"></path><path d="" id="ab4yowzwb"></path><path d="M62.5 27.5L71.88 36.88" id="b1gVdVZdGS"></path><path d="M79.25 28.23L69.88 36.88" id="aMX9jEcRZ"></path><path d="M70.88 18.75L70.88 37.7" id="o2HU505nhT"></path></defs><g><g><g><use xlink:href="#b9vqHpCSs" opacity="1" fill="#000000" fill-opacity="1"></use></g><g><g><use xlink:href="#dtxBH0erq" opacity="1" fill-opacity="0" stroke="#000000" stroke-width="1" stroke-opacity="1"></use></g></g><g><g><g><use xlink:href="#aisrIGmi3" opacity="1" fill-opacity="0" stroke="#000000" stroke-width="1" stroke-opacity="1"></use></g></g><g><g><use xlink:href="#b35lMj9xLR" opacity="1" fill-opacity="0" stroke="#000000" stroke-width="4" stroke-opacity="1"></use></g></g><g><g><use xlink:href="#c3upuxNxdS" opacity="1" fill-opacity="0" stroke="#000000" stroke-width="4" stroke-opacity="1"></use></g></g><g><g><use xlink:href="#eaI7GXdjB" opacity="1" fill-opacity="0" stroke="#000000" stroke-width="3" stroke-opacity="1"></use></g></g></g><g><use xlink:href="#kAXsizk7h" opacity="1" fill="#000000" fill-opacity="1"></use></g><g><use xlink:href="#b3CSScUxHi" opacity="1" fill="#000000" fill-opacity="1"></use></g><g><use xlink:href="#j1HQTtaHoG" opacity="1" fill="#000000" fill-opacity="1"></use></g><g><g><g><use xlink:href="#ab4yowzwb" opacity="1" fill-opacity="0" stroke="#000000" stroke-width="1" stroke-opacity="1"></use></g></g><g><g><use xlink:href="#b1gVdVZdGS" opacity="1" fill-opacity="0" stroke="#000000" stroke-width="4" stroke-opacity="1"></use></g></g><g><g><use xlink:href="#aMX9jEcRZ" opacity="1" fill-opacity="0" stroke="#000000" stroke-width="4" stroke-opacity="1"></use></g></g><g><g><use xlink:href="#o2HU505nhT" opacity="1" fill-opacity="0" stroke="#000000" stroke-width="3" stroke-opacity="1"></use></g></g></g></g></g></svg>