<?xml version="1.0" encoding="UTF-8" standalone="no"?>
<!DOCTYPE svg PUBLIC "-//W3C//DTD SVG 1.1//EN" "http://www.w3.org/Graphics/SVG/1.1/DTD/svg11.dtd">
<svg version="1.1" xmlns="http://www.w3.org/2000/svg" xmlns:xlink="http://www.w3.org/1999/xlink" preserveAspectRatio="xMidYMid meet" viewBox="0 0 100 100" width="100" height="100"><defs><path d="" id="a2jB3VxR2p"></path><path d="M4.4 18.32L95.03 18.32L95.03 31.25L4.4 31.25L4.4 18.32Z" id="c4JQEmTo6Q"></path><path d="M34.16 71.87L40.75 30.98L34.16 30.98L34.16 71.87Z" id="aAqB88irZ"></path><path d="M20.39 30.63L34.56 30.63L34.56 78.13L20.39 78.13L20.39 30.63Z" id="e1p5BhXgkA"></path><path d="M20.91 71.73L14.32 30.84L20.91 30.84L20.91 71.73Z" id="c8Sk8eXtX"></path><path d="M79.77 71.87L86.37 30.98L79.77 30.98L79.77 71.87Z" id="b7sbi1Fk89"></path><path d="M66.01 30.63L80.18 30.63L80.18 78.12L66.01 78.12L66.01 30.63Z" id="a4hFElux"></path><path d="M66.53 71.73L59.94 30.84L66.53 30.84L66.53 71.73Z" id="b6wVNiUID"></path></defs><g><g><g><g><use xlink:href="#a2jB3VxR2p" opacity="1" fill-opacity="0" stroke="#5ff3de" stroke-width="1" stroke-opacity="1"></use></g></g><g><use xlink:href="#c4JQEmTo6Q" opacity="1" fill="#000000" fill-opacity="1"></use></g><g><g><use xlink:href="#aAqB88irZ" opacity="1" fill="#030303" fill-opacity="1"></use></g><g><use xlink:href="#e1p5BhXgkA" opacity="1" fill="#000000" fill-opacity="1"></use></g><g><use xlink:href="#c8Sk8eXtX" opacity="1" fill="#030303" fill-opacity="1"></use></g></g><g><g><use xlink:href="#b7sbi1Fk89" opacity="1" fill="#030303" fill-opacity="1"></use></g><g><use xlink:href="#a4hFElux" opacity="1" fill="#000000" fill-opacity="1"></use></g><g><use xlink:href="#b6wVNiUID" opacity="1" fill="#030303" fill-opacity="1"></use></g></g></g></g></svg>