<?xml version="1.0" encoding="UTF-8" standalone="no"?>
<!DOCTYPE svg PUBLIC "-//W3C//DTD SVG 1.1//EN" "http://www.w3.org/Graphics/SVG/1.1/DTD/svg11.dtd">
<svg version="1.1" xmlns="http://www.w3.org/2000/svg" xmlns:xlink="http://www.w3.org/1999/xlink" preserveAspectRatio="xMidYMid meet" viewBox="0 0 100 100" width="100" height="100"><defs><path d="M9.38 46.88L90.63 46.88L90.63 50L9.38 50L9.38 46.88Z" id="ck313TS3M"></path><path d="" id="bjw6A4G0P"></path><path d="" id="c3ca6r8IXM"></path><path d="M38.5 28.08L47.88 37.45" id="a5mdUDzUH"></path><path d="M55.25 28.8L45.88 37.45" id="a3iDM2CPa3"></path><path d="M13.13 55.61L16.89 61.22L9.37 61.22L1.86 61.22L5.62 55.61L9.37 50L13.13 55.61Z" id="f7tN6xyfkW"></path><path d="M94.38 55.61L98.14 61.22L90.62 61.22L83.11 61.22L86.87 55.61L90.62 50L94.38 55.61Z" id="a8PopQJJw"></path><path d="M8.98 45.76L11.57 43.77L13.9 41.52L16.75 39.78L19.86 38.78L23.22 38.03L26.59 37.78L30.22 37.53L33.58 37.53L36.95 37.53L40.32 38.28L43.42 39.78L46.27 41.52L49.38 43.52L52.23 45.26L54.82 47.51L57.41 49.75L60.26 51.5L63.37 52.99L66.48 54.49L69.84 55.24L73.21 55.49L76.58 55.49L79.94 55.49L83.31 54.99L86.42 53.74L89.53 52" id="a7BDBJ0qDv"></path><clipPath id="clipa4hQtXAX0B"><use xlink:href="#a7BDBJ0qDv" opacity="1"></use></clipPath><clipPath id="clipa1Yicr5ITI"><use xlink:href="#a7BDBJ0qDv" opacity="1"></use></clipPath><path d="M38.5 19.5L47.88 10.12" id="b9g0H3b0I"></path><path d="M55.25 18.77L45.88 10.12" id="b1nYPS9rzt"></path><path d="M46.88 12.5L46.88 35.04" id="dirALctcc"></path></defs><g><g><g><use xlink:href="#ck313TS3M" opacity="1" fill="#000000" fill-opacity="1"></use></g><g><g><use xlink:href="#bjw6A4G0P" opacity="1" fill-opacity="0" stroke="#000000" stroke-width="1" stroke-opacity="1"></use></g></g><g><g><use xlink:href="#c3ca6r8IXM" opacity="1" fill-opacity="0" stroke="#000000" stroke-width="1" stroke-opacity="1"></use></g></g><g><g><use xlink:href="#a5mdUDzUH" opacity="1" fill-opacity="0" stroke="#000000" stroke-width="4" stroke-opacity="1"></use></g></g><g><g><use xlink:href="#a3iDM2CPa3" opacity="1" fill-opacity="0" stroke="#000000" stroke-width="4" stroke-opacity="1"></use></g></g><g><use xlink:href="#f7tN6xyfkW" opacity="1" fill="#000000" fill-opacity="1"></use></g><g><use xlink:href="#a8PopQJJw" opacity="1" fill="#000000" fill-opacity="1"></use></g><g><g clip-path="url(#clipa4hQtXAX0B)"><use xlink:href="#a7BDBJ0qDv" opacity="1" fill-opacity="0" stroke="#000000" stroke-width="2" stroke-opacity="1"></use></g><g clip-path="url(#clipa1Yicr5ITI)"><use xlink:href="#a7BDBJ0qDv" opacity="1" fill-opacity="0" stroke="#000000" stroke-width="2" stroke-opacity="1"></use></g></g><g><g><use xlink:href="#b9g0H3b0I" opacity="1" fill-opacity="0" stroke="#000000" stroke-width="4" stroke-opacity="1"></use></g></g><g><g><use xlink:href="#b1nYPS9rzt" opacity="1" fill-opacity="0" stroke="#000000" stroke-width="4" stroke-opacity="1"></use></g></g><g><g><use xlink:href="#dirALctcc" opacity="1" fill-opacity="0" stroke="#000000" stroke-width="3" stroke-opacity="1"></use></g></g></g></g></svg>