<?xml version="1.0" encoding="UTF-8" standalone="no"?>
<!DOCTYPE svg PUBLIC "-//W3C//DTD SVG 1.1//EN" "http://www.w3.org/Graphics/SVG/1.1/DTD/svg11.dtd">
<svg version="1.1" xmlns="http://www.w3.org/2000/svg" xmlns:xlink="http://www.w3.org/1999/xlink" preserveAspectRatio="xMidYMid meet" viewBox="0 0 100 100" width="100" height="100"><defs><path d="M22.48 12.5L53.12 12.5L53.12 90.63L22.48 90.63L22.48 12.5Z" id="h1MazUkyLO"></path><path d="M41.75 23.56C41.75 25.75 39.84 27.53 37.5 27.53C35.16 27.53 33.25 25.75 33.25 23.56C33.25 21.38 35.16 19.6 37.5 19.6C39.84 19.6 41.75 21.38 41.75 23.56Z" id="acxE1mdh0"></path><path d="M41.75 80.41C41.75 82.6 39.84 84.38 37.5 84.38C35.16 84.38 33.25 82.6 33.25 80.41C33.25 78.23 35.16 76.45 37.5 76.45C39.84 76.45 41.75 78.23 41.75 80.41Z" id="d1frdiETgG"></path><path d="M31.25 68.75L93.75 68.75L93.75 37.5L31.25 37.5L31.25 68.75Z" id="dTuc5628a"></path></defs><g><g><g><use xlink:href="#h1MazUkyLO" opacity="1" fill="#fafafa" fill-opacity="0"></use><g><use xlink:href="#h1MazUkyLO" opacity="1" fill-opacity="0" stroke="#020202" stroke-width="4" stroke-opacity="1"></use></g></g><g><use xlink:href="#acxE1mdh0" opacity="1" fill="#fafafa" fill-opacity="0"></use><g><use xlink:href="#acxE1mdh0" opacity="1" fill-opacity="0" stroke="#0b0b0b" stroke-width="3" stroke-opacity="1"></use></g></g><g><use xlink:href="#d1frdiETgG" opacity="1" fill="#fafafa" fill-opacity="0"></use><g><use xlink:href="#d1frdiETgG" opacity="1" fill-opacity="0" stroke="#0b0b0b" stroke-width="3" stroke-opacity="1"></use></g></g><g><g><use xlink:href="#dTuc5628a" opacity="1" fill-opacity="0" stroke="#000000" stroke-width="2" stroke-opacity="1"></use></g></g></g></g></svg>