<?xml version="1.0" encoding="UTF-8" standalone="no"?>
<!DOCTYPE svg PUBLIC "-//W3C//DTD SVG 1.1//EN" "http://www.w3.org/Graphics/SVG/1.1/DTD/svg11.dtd">
<svg version="1.1" xmlns="http://www.w3.org/2000/svg" xmlns:xlink="http://www.w3.org/1999/xlink" preserveAspectRatio="xMidYMid meet" viewBox="0 0 100 100" width="100" height="100"><defs><path d="M9.38 11.49L90.63 11.49L90.63 89.01L9.38 89.01L9.38 11.49Z" id="acS6NHaTZ"></path><path d="" id="b2zfkT9Hjd"></path><path d="M13.19 43.76L16.43 41.76L19.18 39.77L21.93 38.02L24.67 36.02L27.42 34.03L29.66 31.78L31.66 29.04L33.16 26.29L35.15 23.55L36.65 20.8L38.15 18.06L39.14 15.06" id="b1gCfYQvH0"></path><path d="M10.7 78.45L13.69 76.45L16.68 74.96L19.68 73.46L23.17 71.71L26.17 69.96L29.16 68.47L32.41 66.72L35.65 64.47L38.65 62.23L41.64 59.73L44.39 57.24L46.88 54.99L49.38 52.99L51.87 50.75L54.12 48.25L56.36 45.51L58.36 43.01L59.86 40.02L61.35 37.02L62.85 34.28L64.6 31.53L66.1 28.79L67.34 25.79L68.59 22.8L69.59 19.8L70.09 16.31L70.34 13.07" id="aztGxPmI"></path><path d="M48.88 84.69L51.87 82.69L54.87 81.44L57.61 79.95L60.61 78.7L64.1 76.7L66.84 75.2L69.59 73.71L72.34 71.46L74.58 69.22L76.83 66.72L79.07 64.47L81.32 62.23L83.07 59.23L84.81 56.49L86.81 53.74L88.31 51" id="e18bFoMCcJ"></path></defs><g><g><g><use xlink:href="#acS6NHaTZ" opacity="1" fill="#ffffff" fill-opacity="0"></use><g><use xlink:href="#acS6NHaTZ" opacity="1" fill-opacity="0" stroke="#000000" stroke-width="10" stroke-opacity="1"></use></g></g><g><g><use xlink:href="#b2zfkT9Hjd" opacity="1" fill-opacity="0" stroke="#000000" stroke-width="1" stroke-opacity="1"></use></g></g><g><g><use xlink:href="#b1gCfYQvH0" opacity="1" fill-opacity="0" stroke="#000000" stroke-width="6" stroke-opacity="1"></use></g></g><g><g><use xlink:href="#aztGxPmI" opacity="1" fill-opacity="0" stroke="#000000" stroke-width="6" stroke-opacity="1"></use></g></g><g><g><use xlink:href="#e18bFoMCcJ" opacity="1" fill-opacity="0" stroke="#000000" stroke-width="6" stroke-opacity="1"></use></g></g></g></g></svg>