<svg height="512pt" viewBox="0 -139 512.00941 512" width="512pt" xmlns="http://www.w3.org/2000/svg"><path d="m501.34375 149.339844h-490.667969c-5.886719 0-10.6679685-4.78125-10.6679685-10.667969s4.7812495-10.667969 10.6679685-10.667969h490.667969c5.886719 0 10.664062 4.78125 10.664062 10.667969s-4.777343 10.667969-10.664062 10.667969zm0 0"/><path d="m394.675781 234.671875c-.382812 0-.769531-.023437-1.152343-.066406-5.460938-.59375-9.558594-5.203125-9.515626-10.6875.171876-21.992188.109376-34.21875.066407-45.949219l-.066407-17.964844c0-76.457031-62.207031-138.664062-138.664062-138.664062-76.460938 0-138.667969 62.207031-138.667969 138.664062 0 6.527344.105469 13.738282.191407 21.097656.214843 15.488282.425781 31.597657-.210938 43.457032-.300781 5.761718-5.183594 9.855468-10.925781 10.113281-5.78125-.148437-10.386719-4.886719-10.386719-10.667969 0-20.863281-34.625-61.523437-77.269531-72.253906-5.71875-1.429688-9.195313-7.234375-7.746094-12.949219 1.453125-5.71875 7.191406-9.175781 12.949219-7.746093 27.285156 6.871093 54.316406 25.195312 72.214844 46.230468-.085938-6.015625-.148438-11.882812-.148438-17.28125 0-88.234375 71.765625-159.99999975 160-159.99999975s160 71.76562475 160 159.99999975l.042969 16.171875c22.292969-29.183593 57.941406-48.171875 95.957031-48.171875 5.886719 0 10.664062 4.78125 10.664062 10.667969s-4.777343 10.667969-10.664062 10.667969c-45.570312 0-86.933594 33.042968-96.234375 76.882812-1.066406 4.972656-5.460937 8.449219-10.433594 8.449219zm0 0"/><path d="m245.34375 149.339844c-5.890625 0-10.667969-4.78125-10.667969-10.667969v-128c0-5.886719 4.777344-10.66796875 10.667969-10.66796875 5.886719 0 10.664062 4.78124975 10.664062 10.66796875v128c0 5.886719-4.777343 10.667969-10.664062 10.667969zm0 0"/><path d="m320.007812 149.339844c-5.886718 0-10.664062-4.78125-10.664062-10.667969v-106.667969c0-5.886718 4.777344-10.664062 10.664062-10.664062 5.890626 0 10.667969 4.777344 10.667969 10.664062v106.667969c0 5.886719-4.777343 10.667969-10.667969 10.667969zm0 0"/><path d="m170.675781 149.339844c-5.886719 0-10.667969-4.78125-10.667969-10.667969v-106.667969c0-5.886718 4.78125-10.664062 10.667969-10.664062s10.667969 4.777344 10.667969 10.664062v106.667969c0 5.886719-4.78125 10.667969-10.667969 10.667969zm0 0"/></svg>