<?xml version="1.0" encoding="UTF-8" standalone="no"?>
<!DOCTYPE svg PUBLIC "-//W3C//DTD SVG 1.1//EN" "http://www.w3.org/Graphics/SVG/1.1/DTD/svg11.dtd">
<svg version="1.1" xmlns="http://www.w3.org/2000/svg" xmlns:xlink="http://www.w3.org/1999/xlink" preserveAspectRatio="xMidYMid meet" viewBox="0 0 50 50" width="50" height="50"><defs><path d="M46.88 10.94L39.06 3.13L46.88 3.13L46.88 10.94Z" id="aTZyqdT4p"></path><path d="M3.13 39.06L10.94 46.88L3.13 46.88L3.13 39.06Z" id="h2ISXGzaNO"></path><path d="M2.94 10.77L10.68 3.04L46.93 39.29L39.2 47.02L2.94 10.77Z" id="airfsdJfC"></path><path d="M23.44 3.12L34.38 3.12L34.38 10.94L23.44 10.94L23.44 3.12Z" id="akKyJOEUA"></path><path d="M15.62 39.06L26.56 39.06L26.56 46.88L15.62 46.88L15.62 39.06Z" id="a1CGmpuytT"></path><path d="M34.38 3.13L42.19 10.94L34.38 10.94L34.38 3.13Z" id="b2qFk5EFdD"></path><path d="M15.62 46.88L7.81 39.06L15.62 39.06L15.62 46.88Z" id="b3IU5WirpR"></path><path d="M23.44 10.94L15.63 3.13L23.44 3.13L23.44 10.94Z" id="aaM8mjfhQN"></path><path d="M26.56 39.06L34.38 46.88L26.56 46.88L26.56 39.06Z" id="aX39cjGB3"></path></defs><g><g><g><use xlink:href="#aTZyqdT4p" opacity="1" fill="#46ea4c" fill-opacity="1"></use></g><g><use xlink:href="#h2ISXGzaNO" opacity="1" fill="#46ea4c" fill-opacity="1"></use></g><g><use xlink:href="#airfsdJfC" opacity="1" fill="#46ea4c" fill-opacity="1"></use></g><g><use xlink:href="#akKyJOEUA" opacity="1" fill="#46ea4c" fill-opacity="1"></use></g><g><use xlink:href="#a1CGmpuytT" opacity="1" fill="#46ea4c" fill-opacity="1"></use></g><g><use xlink:href="#b2qFk5EFdD" opacity="1" fill="#46ea4c" fill-opacity="1"></use></g><g><use xlink:href="#b3IU5WirpR" opacity="1" fill="#46ea4c" fill-opacity="1"></use></g><g><use xlink:href="#aaM8mjfhQN" opacity="1" fill="#46ea4c" fill-opacity="1"></use></g><g><use xlink:href="#aX39cjGB3" opacity="1" fill="#46ea4c" fill-opacity="1"></use></g></g></g></svg>