<?xml version="1.0" encoding="UTF-8" standalone="no"?>
<!DOCTYPE svg PUBLIC "-//W3C//DTD SVG 1.1//EN" "http://www.w3.org/Graphics/SVG/1.1/DTD/svg11.dtd">
<svg version="1.1" xmlns="http://www.w3.org/2000/svg" xmlns:xlink="http://www.w3.org/1999/xlink" preserveAspectRatio="xMidYMid meet" viewBox="0 0 50 50" width="50" height="50"><defs><path d="M46.88 15.63L34.38 3.13L46.88 3.13L46.88 15.63Z" id="igAjk9EeU"></path><path d="M3.12 34.65L15.63 47.15L3.12 47.15L3.12 34.65Z" id="f1FN4g08Em"></path><path d="M15.63 3.12L3.13 15.63L3.13 3.13L15.63 3.12Z" id="bVxkiklZ"></path><path d="M34.38 46.88L46.88 34.38L46.88 46.88L34.38 46.88Z" id="e5OsV1dUJ7"></path><path d="M39.06 25C39.06 32.76 32.76 39.06 25 39.06C17.24 39.06 10.94 32.76 10.94 25C10.94 17.24 17.24 10.94 25 10.94C32.76 10.94 39.06 17.24 39.06 25Z" id="a468NsGySA"></path></defs><g><g><g><use xlink:href="#igAjk9EeU" opacity="1" fill="#46ea4c" fill-opacity="1"></use></g><g><use xlink:href="#f1FN4g08Em" opacity="1" fill="#46ea4c" fill-opacity="1"></use></g><g><use xlink:href="#bVxkiklZ" opacity="1" fill="#46ea4c" fill-opacity="1"></use></g><g><use xlink:href="#e5OsV1dUJ7" opacity="1" fill="#46ea4c" fill-opacity="1"></use></g><g><use xlink:href="#a468NsGySA" opacity="1" fill="#46ea4c" fill-opacity="1"></use></g></g></g></svg>