<?xml version="1.0" encoding="UTF-8" standalone="no"?>
<!DOCTYPE svg PUBLIC "-//W3C//DTD SVG 1.1//EN" "http://www.w3.org/Graphics/SVG/1.1/DTD/svg11.dtd">
<svg version="1.1" xmlns="http://www.w3.org/2000/svg" xmlns:xlink="http://www.w3.org/1999/xlink" preserveAspectRatio="xMidYMid meet" viewBox="0 0 150 150" width="150" height="150"><defs><path d="M51.56 56.25L28.13 93.75L75 93.75L121.88 93.75L98.44 56.25L75 18.75L51.56 56.25Z" id="d9U3MH0lj"></path><path d="M65.63 107.78C65.63 115.53 59.34 121.81 51.59 121.81C43.85 121.81 37.56 115.53 37.56 107.78C37.56 100.04 43.85 93.75 51.59 93.75C59.34 93.75 65.63 100.04 65.63 107.78Z" id="e7eMUnzj2Z"></path><path d="M112.5 107.84C112.5 115.59 106.21 121.88 98.47 121.88C90.72 121.88 84.44 115.59 84.44 107.84C84.44 100.1 90.72 93.81 98.47 93.81C106.21 93.81 112.5 100.1 112.5 107.84Z" id="d109QUkvqy"></path></defs><g><g><g><use xlink:href="#d9U3MH0lj" opacity="1" fill="#46ea4c" fill-opacity="1"></use></g><g><use xlink:href="#e7eMUnzj2Z" opacity="1" fill="#46ea4c" fill-opacity="1"></use></g><g><use xlink:href="#d109QUkvqy" opacity="1" fill="#46ea4c" fill-opacity="1"></use></g></g></g></svg>